<svg width="24" height="24" viewBox="0 0 24 24" fill="none" xmlns="http://www.w3.org/2000/svg">
                        <rect width="24" height="24" fill="none" />
                        <path
                            d="M6.31374 21V19.402L12.3152 12.8324C13.0195 12.063 13.5995 11.3942 14.0552 10.826C14.5109 10.2519 14.8483 9.7133 15.0673 9.21023C15.2922 8.70123 15.4047 8.16856 15.4047 7.61222C15.4047 6.97301 15.2508 6.41963 14.943 5.95206C14.6412 5.48449 14.2269 5.12346 13.7001 4.86896C13.1734 4.61446 12.5815 4.48722 11.9245 4.48722C11.2261 4.48722 10.6165 4.63222 10.0957 4.92223C9.58079 5.20632 9.18129 5.60582 8.89719 6.12074C8.61902 6.63565 8.47994 7.23935 8.47994 7.93182H6.38477C6.38477 6.86648 6.63039 5.93134 7.12163 5.12642C7.61287 4.3215 8.28166 3.69413 9.12802 3.24432C9.98029 2.79451 10.9361 2.5696 11.9956 2.5696C13.0609 2.5696 14.0049 2.79451 14.8276 3.24432C15.6503 3.69413 16.2954 4.30078 16.763 5.06428C17.2305 5.82777 17.4643 6.67708 17.4643 7.61222C17.4643 8.28101 17.343 8.93501 17.1003 9.57422C16.8636 10.2075 16.4493 10.9148 15.8574 11.696C15.2715 12.4714 14.4577 13.4183 13.416 14.5369L9.33221 18.9048V19.0469H17.7839V21H6.31374Z"
                            fill="black" />
                    </svg>