<svg width="24" height="24" viewBox="0 0 24 24" fill="none" xmlns="http://www.w3.org/2000/svg">
                        <rect width="24" height="24" fill="none" />
                        <path
                            d="M10.2667 15.2083L12.8333 12.875L15.4 15.2083L16.3854 14.3125L13.7958 12L16.3396 9.68751L15.3542 8.79167L12.8333 11.125L10.2667 8.79167L9.28125 9.68751L11.8708 12L9.28125 14.3125L10.2667 15.2083ZM2.75 12L6.62292 7.02084C6.82153 6.77084 7.05833 6.56598 7.33333 6.40626C7.60833 6.24653 7.91389 6.16667 8.25 6.16667H17.875C18.2569 6.16667 18.5816 6.2882 18.849 6.53126C19.1163 6.77431 19.25 7.06945 19.25 7.41667V16.5833C19.25 16.9306 19.1163 17.2257 18.849 17.4688C18.5816 17.7118 18.2569 17.8333 17.875 17.8333H8.25C7.91389 17.8333 7.60833 17.7535 7.33333 17.5938C7.05833 17.434 6.82153 17.2292 6.62292 16.9792L2.75 12ZM4.46875 12L7.99792 16.5833H17.875V7.41667H7.99792L4.46875 12ZM17.875 12V7.41667V16.5833V12Z"
                            fill="black" />
                    </svg>