<svg width="24" height="24" viewBox="0 0 24 24" fill="none" xmlns="http://www.w3.org/2000/svg">
                        <rect width="24" height="24" fill="none" />
                        <path
                            d="M12.0966 14.9545V14.3793C12.0966 13.9815 12.1783 13.6175 12.3416 13.2873C12.5085 12.9535 12.75 12.6871 13.0661 12.4883C13.3857 12.2859 13.7727 12.1847 14.2273 12.1847C14.6889 12.1847 15.076 12.2859 15.3885 12.4883C15.701 12.6871 15.9371 12.9535 16.0969 13.2873C16.2567 13.6175 16.3366 13.9815 16.3366 14.3793V14.9545C16.3366 15.3523 16.255 15.718 16.0916 16.0518C15.9318 16.3821 15.6939 16.6484 15.3778 16.8509C15.0653 17.0497 14.6818 17.1491 14.2273 17.1491C13.7656 17.1491 13.3768 17.0497 13.0607 16.8509C12.7447 16.6484 12.505 16.3821 12.3416 16.0518C12.1783 15.718 12.0966 15.3523 12.0966 14.9545ZM13.1832 14.3793V14.9545C13.1832 15.2848 13.2614 15.5813 13.4176 15.8441C13.5739 16.1033 13.8438 16.233 14.2273 16.233C14.6001 16.233 14.8629 16.1033 15.0156 15.8441C15.1719 15.5813 15.25 15.2848 15.25 14.9545V14.3793C15.25 14.049 15.1754 13.7543 15.0263 13.495C14.8771 13.2322 14.6108 13.1009 14.2273 13.1009C13.8544 13.1009 13.5863 13.2322 13.4229 13.495C13.2631 13.7543 13.1832 14.049 13.1832 14.3793ZM6.66335 8.71165V8.13636C6.66335 7.73864 6.74503 7.37464 6.90838 7.04439C7.07528 6.71058 7.31676 6.44425 7.63281 6.24538C7.95241 6.04297 8.33949 5.94176 8.79403 5.94176C9.25568 5.94176 9.64276 6.04297 9.95526 6.24538C10.2678 6.44425 10.5039 6.71058 10.6637 7.04439C10.8235 7.37464 10.9034 7.73864 10.9034 8.13636V8.71165C10.9034 9.10937 10.8217 9.47514 10.6584 9.80895C10.4986 10.1392 10.2607 10.4055 9.9446 10.608C9.6321 10.8068 9.24858 10.9062 8.79403 10.9062C8.33239 10.9062 7.94354 10.8068 7.62749 10.608C7.31143 10.4055 7.07173 10.1392 6.90838 9.80895C6.74503 9.47514 6.66335 9.10937 6.66335 8.71165ZM7.75 8.13636V8.71165C7.75 9.0419 7.82812 9.33842 7.98438 9.60121C8.14062 9.86044 8.41051 9.99006 8.79403 9.99006C9.1669 9.99006 9.42969 9.86044 9.58239 9.60121C9.73864 9.33842 9.81676 9.0419 9.81676 8.71165V8.13636C9.81676 7.80611 9.74219 7.51136 9.59304 7.25213C9.44389 6.98935 9.17756 6.85795 8.79403 6.85795C8.42116 6.85795 8.15305 6.98935 7.9897 7.25213C7.8299 7.51136 7.75 7.80611 7.75 8.13636ZM7.06818 17L14.5682 6.09091H15.7827L8.28267 17H7.06818Z"
                            fill="black" />
                    </svg>