<svg width="24" height="24" viewBox="0 0 24 24" fill="none" xmlns="http://www.w3.org/2000/svg">
                        <rect width="24" height="24" fill="none" />
                        <path
                            d="M11.8702 2.5696C12.6159 2.57552 13.3616 2.71757 14.1074 2.99574C14.8531 3.27391 15.5338 3.73556 16.1493 4.38068C16.7648 5.01989 17.259 5.89287 17.6319 6.99964C18.0048 8.10642 18.1912 9.49432 18.1912 11.1634C18.1912 12.7791 18.0373 14.2144 17.7295 15.4691C17.4277 16.7179 16.9897 17.7714 16.4156 18.6296C15.8474 19.4878 15.155 20.1388 14.3382 20.5827C13.5274 21.0266 12.61 21.2486 11.5861 21.2486C10.5681 21.2486 9.65958 21.0473 8.86057 20.6449C8.06749 20.2365 7.41644 19.6713 6.90745 18.9492C6.40437 18.2212 6.08181 17.3778 5.93976 16.419H8.10596C8.30127 17.2536 8.68894 17.9431 9.26895 18.4876C9.85489 19.0262 10.6273 19.2955 11.5861 19.2955C12.9888 19.2955 14.0955 18.6829 14.9064 17.4577C15.7231 16.2326 16.1315 14.5014 16.1315 12.2642H15.9895C15.658 12.7614 15.2645 13.1905 14.8087 13.5515C14.353 13.9125 13.847 14.1907 13.2906 14.386C12.7343 14.5813 12.1424 14.679 11.515 14.679C10.4734 14.679 9.51753 14.4215 8.64751 13.9066C7.7834 13.3858 7.09092 12.6726 6.57009 11.767C6.05518 10.8556 5.79772 9.81392 5.79772 8.64205C5.79772 7.52936 6.0463 6.51136 6.54346 5.58807C7.04653 4.65885 7.75084 3.91903 8.65638 3.36861C9.56784 2.81818 10.6391 2.55185 11.8702 2.5696ZM11.8702 4.52273C11.1244 4.52273 10.4527 4.70916 9.85489 5.08203C9.26304 5.44898 8.79251 5.94614 8.44332 6.57351C8.10004 7.19496 7.9284 7.88447 7.9284 8.64205C7.9284 9.39962 8.09412 10.0891 8.42556 10.7106C8.76292 11.3261 9.22161 11.8174 9.80162 12.1843C10.3876 12.5453 11.0534 12.7259 11.7991 12.7259C12.3614 12.7259 12.8852 12.6164 13.3705 12.3974C13.8558 12.1725 14.279 11.8677 14.64 11.483C15.007 11.0923 15.294 10.6514 15.5012 10.1602C15.7083 9.663 15.8119 9.14512 15.8119 8.60653C15.8119 7.89631 15.6403 7.23047 15.297 6.60902C14.9597 5.98757 14.4921 5.48449 13.8943 5.09979C13.3025 4.71508 12.6277 4.52273 11.8702 4.52273Z"
                            fill="black" />
                    </svg>