<svg width="24" height="24" viewBox="0 0 24 24" fill="none" xmlns="http://www.w3.org/2000/svg">
                        <rect width="24" height="24" fill="none" />
                        <path
                            d="M12.0666 21.2486C10.8947 21.2486 9.85008 21.0473 8.93271 20.6449C8.02125 20.2424 7.29622 19.6831 6.75763 18.967C6.22496 18.2449 5.93496 17.4074 5.88761 16.4545H8.12482C8.17217 17.0405 8.3734 17.5465 8.72852 17.9727C9.08363 18.3929 9.54824 18.7184 10.1223 18.9492C10.6964 19.18 11.3327 19.2955 12.0311 19.2955C12.8123 19.2955 13.5048 19.1593 14.1085 18.8871C14.7122 18.6148 15.1857 18.236 15.5289 17.7507C15.8722 17.2654 16.0439 16.7031 16.0439 16.0639C16.0439 15.3951 15.8781 14.8062 15.5467 14.2972C15.2153 13.7823 14.7299 13.3799 14.0907 13.0898C13.4515 12.7998 12.6703 12.6548 11.747 12.6548H10.291V10.7017H11.747C12.469 10.7017 13.1023 10.5715 13.6468 10.3111C14.1973 10.0507 14.6264 9.68371 14.9341 9.21023C15.2478 8.73674 15.4047 8.1804 15.4047 7.54119C15.4047 6.92566 15.2685 6.39003 14.9963 5.9343C14.724 5.47857 14.3393 5.12346 13.8422 4.86896C13.3509 4.61446 12.7709 4.48722 12.1021 4.48722C11.4747 4.48722 10.8829 4.60263 10.3265 4.83345C9.7761 5.05836 9.32629 5.38684 8.9771 5.81889C8.6279 6.24503 8.43851 6.75994 8.40891 7.36364H6.27823C6.31374 6.41075 6.60079 5.57623 7.13938 4.86008C7.67797 4.13802 8.38228 3.57576 9.25231 3.1733C10.1283 2.77083 11.09 2.5696 12.1376 2.5696C13.2621 2.5696 14.2269 2.79747 15.0318 3.2532C15.8367 3.70301 16.4552 4.29782 16.8873 5.03764C17.3193 5.77746 17.5353 6.57647 17.5353 7.43466C17.5353 8.45857 17.266 9.33156 16.7275 10.0536C16.1948 10.7757 15.4698 11.2758 14.5524 11.554V11.696C15.7006 11.8854 16.5972 12.3737 17.2424 13.1609C17.8875 13.9421 18.21 14.9098 18.21 16.0639C18.21 17.0523 17.9408 17.9401 17.4022 18.7273C16.8695 19.5085 16.1415 20.1241 15.2182 20.5739C14.2949 21.0237 13.2444 21.2486 12.0666 21.2486Z"
                            fill="black" />
                    </svg>