<svg width="24" height="24" viewBox="0 0 24 24" fill="none" xmlns="http://www.w3.org/2000/svg">
                        <rect width="24" height="24" fill="none" />
                        <path
                            d="M12.0033 21.2486C10.7841 21.2486 9.70693 21.0326 8.7718 20.6005C7.84258 20.1625 7.11756 19.5618 6.59672 18.7983C6.07589 18.0289 5.81843 17.1529 5.82435 16.1705C5.81843 15.401 5.96936 14.6908 6.27712 14.0398C6.58489 13.3828 7.0051 12.8353 7.53778 12.3974C8.07636 11.9535 8.6771 11.6723 9.33998 11.554V11.4474C8.46995 11.2225 7.77748 10.7343 7.26256 9.9826C6.74765 9.22502 6.49315 8.36387 6.49907 7.39915C6.49315 6.47585 6.72693 5.65021 7.20042 4.92223C7.6739 4.19425 8.32494 3.62015 9.15354 3.19993C9.98806 2.77971 10.938 2.5696 12.0033 2.5696C13.0568 2.5696 13.9979 2.77971 14.8265 3.19993C15.6551 3.62015 16.3061 4.19425 16.7796 4.92223C17.259 5.65021 17.5017 6.47585 17.5076 7.39915C17.5017 8.36387 17.2383 9.22502 16.7175 9.9826C16.2025 10.7343 15.519 11.2225 14.6667 11.4474V11.554C15.3236 11.6723 15.9155 11.9535 16.4422 12.3974C16.969 12.8353 17.3892 13.3828 17.7029 14.0398C18.0166 14.6908 18.1764 15.401 18.1823 16.1705C18.1764 17.1529 17.9101 18.0289 17.3833 18.7983C16.8625 19.5618 16.1374 20.1625 15.2082 20.6005C14.2849 21.0326 13.2166 21.2486 12.0033 21.2486ZM12.0033 19.2955C12.826 19.2955 13.5362 19.1623 14.134 18.896C14.7318 18.6296 15.1934 18.2538 15.519 17.7685C15.8445 17.2831 16.0102 16.715 16.0161 16.0639C16.0102 15.3774 15.8326 14.7707 15.4834 14.244C15.1342 13.7172 14.6578 13.3029 14.0541 13.0011C13.4563 12.6992 12.7727 12.5483 12.0033 12.5483C11.228 12.5483 10.5355 12.6992 9.92591 13.0011C9.32222 13.3029 8.84578 13.7172 8.49658 14.244C8.15331 14.7707 7.98463 15.3774 7.99055 16.0639C7.98463 16.715 8.14147 17.2831 8.46107 17.7685C8.78659 18.2538 9.2512 18.6296 9.85489 18.896C10.4586 19.1623 11.1747 19.2955 12.0033 19.2955ZM12.0033 10.6662C12.6544 10.6662 13.2314 10.536 13.7345 10.2756C14.2435 10.0152 14.643 9.65116 14.933 9.18359C15.223 8.71603 15.371 8.16856 15.3769 7.54119C15.371 6.92566 15.226 6.39003 14.9419 5.9343C14.6578 5.47266 14.2642 5.11754 13.7611 4.86896C13.2581 4.61446 12.6721 4.48722 12.0033 4.48722C11.3227 4.48722 10.7279 4.61446 10.2189 4.86896C9.70989 5.11754 9.3163 5.47266 9.03813 5.9343C8.75996 6.39003 8.62383 6.92566 8.62975 7.54119C8.62383 8.16856 8.76292 8.71603 9.04701 9.18359C9.33702 9.65116 9.73652 10.0152 10.2455 10.2756C10.7545 10.536 11.3405 10.6662 12.0033 10.6662Z"
                            fill="black" />
                    </svg>