<svg width="24" height="24" viewBox="0 0 24 24" fill="none" xmlns="http://www.w3.org/2000/svg">
                        <rect width="24" height="24" fill="none" />
                        <path
                            d="M12.1187 21.2486C11.373 21.2367 10.6273 21.0947 9.88153 20.8224C9.13579 20.5502 8.45515 20.0915 7.83962 19.4464C7.22409 18.7953 6.72989 17.9164 6.35702 16.8097C5.98415 15.697 5.79772 14.3002 5.79772 12.6193C5.79772 11.0095 5.94864 9.5831 6.25049 8.3402C6.55233 7.09138 6.99031 6.04084 7.56441 5.18857C8.13851 4.33037 8.83098 3.67933 9.64182 3.23544C10.4586 2.79155 11.3789 2.5696 12.4028 2.5696C13.4208 2.5696 14.3264 2.77379 15.1195 3.18217C15.9185 3.58463 16.5695 4.1469 17.0726 4.86896C17.5757 5.59103 17.9012 6.42258 18.0491 7.36364H15.8829C15.6817 6.54687 15.2911 5.8692 14.7111 5.33061C14.1311 4.79202 13.3616 4.52273 12.4028 4.52273C10.9942 4.52273 9.88448 5.1353 9.07364 6.36044C8.26872 7.58558 7.8633 9.30492 7.85738 11.5185H7.99942C8.33086 11.0154 8.72445 10.5863 9.18018 10.2312C9.64182 9.87015 10.1508 9.59197 10.7072 9.39666C11.2635 9.20135 11.8524 9.10369 12.4739 9.10369C13.5155 9.10369 14.4684 9.36411 15.3325 9.88494C16.1966 10.3999 16.8891 11.113 17.4099 12.0245C17.9308 12.93 18.1912 13.9688 18.1912 15.1406C18.1912 16.2652 17.9396 17.295 17.4366 18.2301C16.9335 19.1593 16.2262 19.8991 15.3148 20.4496C14.4092 20.9941 13.3439 21.2604 12.1187 21.2486ZM12.1187 19.2955C12.8645 19.2955 13.5333 19.109 14.1251 18.7362C14.7229 18.3633 15.1934 17.8632 15.5367 17.2358C15.8859 16.6084 16.0605 15.91 16.0605 15.1406C16.0605 14.389 15.8918 13.7054 15.5545 13.0898C15.223 12.4684 14.7643 11.9742 14.1784 11.6072C13.5984 11.2403 12.9355 11.0568 12.1898 11.0568C11.6275 11.0568 11.1037 11.1693 10.6184 11.3942C10.1331 11.6132 9.70693 11.915 9.33998 12.2997C8.97894 12.6844 8.69485 13.1254 8.4877 13.6225C8.28055 14.1138 8.17698 14.6316 8.17698 15.1761C8.17698 15.8982 8.34566 16.5729 8.68302 17.2003C9.02629 17.8277 9.49386 18.3337 10.0857 18.7184C10.6835 19.1031 11.3612 19.2955 12.1187 19.2955Z"
                            fill="black" />
                    </svg>