<svg width="24" height="24" viewBox="0 0 24 24" fill="none" xmlns="http://www.w3.org/2000/svg">
                        <rect width="24" height="24" fill="none" />
                        <path
                            d="M3.99991 17H2.61497L6.62065 6.09091H7.98429L11.99 17H10.605L7.34508 7.81676H7.25985L3.99991 17ZM4.51127 12.7386H10.0937V13.9105H4.51127V12.7386ZM21.9549 9.5H20.6339C20.5558 9.12003 20.419 8.78622 20.2237 8.49858C20.032 8.21094 19.7976 7.96946 19.5206 7.77415C19.2472 7.57528 18.9435 7.42614 18.6097 7.3267C18.2759 7.22727 17.9279 7.17756 17.5657 7.17756C16.9052 7.17756 16.3068 7.34446 15.7706 7.67827C15.2379 8.01207 14.8136 8.50391 14.4975 9.15376C14.185 9.80362 14.0288 10.6009 14.0288 11.5455C14.0288 12.4901 14.185 13.2873 14.4975 13.9371C14.8136 14.587 15.2379 15.0788 15.7706 15.4126C16.3068 15.7464 16.9052 15.9134 17.5657 15.9134C17.9279 15.9134 18.2759 15.8636 18.6097 15.7642C18.9435 15.6648 19.2472 15.5174 19.5206 15.3221C19.7976 15.1232 20.032 14.88 20.2237 14.5923C20.419 14.3011 20.5558 13.9673 20.6339 13.5909H21.9549C21.8555 14.1484 21.6744 14.6474 21.4116 15.0877C21.1488 15.5281 20.8221 15.9027 20.4315 16.2116C20.0408 16.517 19.6023 16.7496 19.1158 16.9094C18.6328 17.0692 18.1161 17.1491 17.5657 17.1491C16.6353 17.1491 15.8079 16.9219 15.0835 16.4673C14.359 16.0128 13.7891 15.3665 13.3736 14.5284C12.9581 13.6903 12.7504 12.696 12.7504 11.5455C12.7504 10.3949 12.9581 9.40057 13.3736 8.5625C13.7891 7.72443 14.359 7.07812 15.0835 6.62358C15.8079 6.16903 16.6353 5.94176 17.5657 5.94176C18.1161 5.94176 18.6328 6.02166 19.1158 6.18146C19.6023 6.34126 20.0408 6.57564 20.4315 6.88459C20.8221 7.18999 21.1488 7.56285 21.4116 8.0032C21.6744 8.43999 21.8555 8.93892 21.9549 9.5Z"
                            fill="black" />
                    </svg>