<svg width="24" height="24" viewBox="0 0 24 24" fill="none" xmlns="http://www.w3.org/2000/svg">
                        <rect width="24" height="24" fill="none" />
                        <path
                            d="M11.9589 21.2486C10.9173 21.2486 9.97918 21.0414 9.14466 20.6271C8.31015 20.2128 7.64135 19.6446 7.13827 18.9226C6.63519 18.2005 6.35998 17.3778 6.31263 16.4545H8.44332C8.52618 17.2772 8.89904 17.9579 9.56192 18.4964C10.2307 19.0291 11.0297 19.2955 11.9589 19.2955C12.7047 19.2955 13.3676 19.1209 13.9476 18.7717C14.5335 18.4225 14.9922 17.9431 15.3236 17.3335C15.661 16.7179 15.8297 16.0225 15.8297 15.2472C15.8297 14.4541 15.6551 13.7468 15.3059 13.1254C14.9626 12.498 14.4891 12.0038 13.8854 11.6428C13.2817 11.2817 12.5922 11.0982 11.8169 11.0923C11.2605 11.0864 10.6894 11.1722 10.1035 11.3498C9.51753 11.5214 9.03517 11.7434 8.65638 12.0156L6.59672 11.767L7.69758 2.81818H17.1436V4.77131H9.54417L8.90496 10.1335H9.0115C9.38437 9.83759 9.85193 9.59197 10.4142 9.39666C10.9765 9.20135 11.5624 9.10369 12.172 9.10369C13.2847 9.10369 14.2761 9.37003 15.1461 9.9027C16.022 10.4295 16.7086 11.1515 17.2057 12.0689C17.7088 12.9863 17.9604 14.0339 17.9604 15.2116C17.9604 16.3717 17.6999 17.4074 17.1791 18.3189C16.6642 19.2244 15.954 19.9406 15.0484 20.4673C14.1429 20.9882 13.1131 21.2486 11.9589 21.2486Z"
                            fill="black" />
                    </svg>