<svg width="24" height="24" viewBox="0 0 24 24" fill="none" xmlns="http://www.w3.org/2000/svg">
                        <rect width="24" height="24" fill="none" />
                        <path
                            d="M12 21.2486C10.6624 21.2486 9.52308 20.8846 8.58203 20.1566C7.64098 19.4227 6.92188 18.3603 6.42472 16.9695C5.92756 15.5727 5.67898 13.8859 5.67898 11.9091C5.67898 9.94413 5.92756 8.26622 6.42472 6.87535C6.92779 5.47857 7.64986 4.41323 8.59091 3.67933C9.53788 2.93951 10.6742 2.5696 12 2.5696C13.3258 2.5696 14.4592 2.93951 15.4002 3.67933C16.3472 4.41323 17.0692 5.47857 17.5664 6.87535C18.0695 8.26622 18.321 9.94413 18.321 11.9091C18.321 13.8859 18.0724 15.5727 17.5753 16.9695C17.0781 18.3603 16.359 19.4227 15.418 20.1566C14.4769 20.8846 13.3376 21.2486 12 21.2486ZM12 19.2955C13.3258 19.2955 14.3556 18.6562 15.0895 17.3778C15.8234 16.0994 16.1903 14.2765 16.1903 11.9091C16.1903 10.3348 16.0217 8.9942 15.6843 7.88743C15.3529 6.78066 14.8735 5.93726 14.2461 5.35724C13.6246 4.77723 12.8759 4.48722 12 4.48722C10.6861 4.48722 9.65921 5.1353 8.91939 6.43146C8.17957 7.72171 7.80966 9.54758 7.80966 11.9091C7.80966 13.4834 7.97538 14.821 8.30682 15.9219C8.63826 17.0227 9.1147 17.8602 9.73615 18.4343C10.3635 19.0084 11.1181 19.2955 12 19.2955Z"
                            fill="black" />
                    </svg>